<svg width="32" height="32" viewBox="0 0 32 32" fill="none" xmlns="http://www.w3.org/2000/svg">
<path d="M15.0001 10.7733V14.5866L13.6534 14.12C12.9734 13.88 12.5601 13.6533 12.5601 12.4933C12.5601 11.5466 13.2667 10.7733 14.1334 10.7733H15.0001V10.7733Z" fill="#C02A63"/>
<path d="M19.44 19.5067C19.44 20.4533 18.7333 21.2267 17.8667 21.2267H17V17.4133L18.3467 17.88C19.0267 18.12 19.44 18.3467 19.44 19.5067Z" fill="#C02A63"/>
<path d="M21.5867 2.66669H10.4134C5.56008 2.66669 2.66675 5.56002 2.66675 10.4134V21.5867C2.66675 26.44 5.56008 29.3334 10.4134 29.3334H21.5867C26.4401 29.3334 29.3334 26.44 29.3334 21.5867V10.4134C29.3334 5.56002 26.4401 2.66669 21.5867 2.66669ZM19.0134 16C20.0534 16.36 21.4401 17.12 21.4401 19.5067C21.4401 21.56 19.8401 23.2267 17.8667 23.2267H17.0001V24C17.0001 24.5467 16.5467 25 16.0001 25C15.4534 25 15.0001 24.5467 15.0001 24V23.2267H14.5201C12.3334 23.2267 10.5601 21.3734 10.5601 19.1067C10.5601 18.56 11.0001 18.1067 11.5601 18.1067C12.1067 18.1067 12.5601 18.56 12.5601 19.1067C12.5601 20.28 13.4401 21.2267 14.5201 21.2267H15.0001V16.7067L12.9867 16C11.9467 15.64 10.5601 14.88 10.5601 12.4934C10.5601 10.44 12.1601 8.77335 14.1334 8.77335H15.0001V8.00002C15.0001 7.45335 15.4534 7.00002 16.0001 7.00002C16.5467 7.00002 17.0001 7.45335 17.0001 8.00002V8.77335H17.4801C19.6667 8.77335 21.4401 10.6267 21.4401 12.8934C21.4401 13.44 21.0001 13.8934 20.4401 13.8934C19.8934 13.8934 19.4401 13.44 19.4401 12.8934C19.4401 11.72 18.5601 10.7734 17.4801 10.7734H17.0001V15.2934L19.0134 16Z" fill="#C02A63"/>
</svg>
