<svg width="28" height="30" viewBox="0 0 28 30" fill="none" xmlns="http://www.w3.org/2000/svg">
<path d="M23 0H5C2.51 0 0.5 1.995 0.5 4.455V20.82C0.5 23.28 2.51 25.275 5 25.275H6.14C7.34 25.275 8.48 25.74 9.32 26.58L11.885 29.115C13.055 30.27 14.96 30.27 16.13 29.115L18.695 26.58C19.535 25.74 20.69 25.275 21.875 25.275H23C25.49 25.275 27.5 23.28 27.5 20.82V4.455C27.5 1.995 25.49 0 23 0ZM21.02 12.75L19.265 18.09C19.04 18.975 18.095 19.695 17.135 19.695H14.36C13.88 19.695 13.205 19.53 12.905 19.23L10.7 17.505C10.655 18.465 10.22 18.87 9.155 18.87H8.435C7.325 18.87 6.875 18.435 6.875 17.385V10.23C6.875 9.18 7.325 8.745 8.435 8.745H9.17C10.28 8.745 10.73 9.18 10.73 10.23V10.77L13.64 6.45C13.94 5.985 14.705 5.655 15.35 5.91C16.055 6.15 16.505 6.93 16.355 7.62L15.995 9.96C15.95 10.155 15.995 10.365 16.13 10.5C16.25 10.635 16.43 10.725 16.625 10.725H19.55C20.12 10.725 20.6 10.95 20.885 11.355C21.155 11.745 21.2 12.24 21.02 12.75Z" fill="white"/>
</svg>
