<svg width="131" height="20" viewBox="0 0 131 20" fill="none" xmlns="http://www.w3.org/2000/svg">
<g clip-path="url(#clip0_17_856)">
<path d="M7.77378 5.5238C7.58183 5.95238 7.29392 6.38095 6.91004 6.7619C6.0463 7.57142 4.99063 7.90476 3.88696 7.95238L8.0137 11.9524C8.06169 10.9048 8.39758 9.85714 9.26132 9.04761C9.6452 8.66666 10.0771 8.42857 10.5569 8.19047C9.26132 7.7619 8.25363 6.7619 7.77378 5.5238Z" fill="#878787"/>
<path d="M6.86201 14.5714C8.44552 13.0476 8.44552 10.5714 6.86201 9.09525C5.27849 7.57144 2.73527 7.57144 1.15175 9.09525C-0.431768 10.6191 -0.431768 13.0952 1.15175 14.5714C2.73527 16.0952 5.27849 16.0952 6.86201 14.5714Z" fill="#878787"/>
<path d="M15.0195 1.23807C16.603 2.76188 16.603 5.23807 15.0195 6.71426C13.436 8.23807 10.8927 8.23807 9.30922 6.71426C7.7257 5.19045 7.7257 2.71426 9.30922 1.23807C10.8927 -0.285738 13.4839 -0.285738 15.0195 1.23807Z" fill="#878787"/>
<path d="M31.3346 1.23807C29.7511 -0.285738 27.2078 -0.285738 25.6243 1.23807C24.8566 1.99998 24.4727 2.90474 24.4727 3.85712C24.4247 4.90474 24.0888 5.95236 23.225 6.76188C22.8412 7.14283 22.4093 7.42855 21.9294 7.61902C23.225 8.0476 24.2327 9.0476 24.7126 10.2857C24.9045 9.85712 25.1924 9.42855 25.5763 9.0476C26.4401 8.23807 27.4957 7.90474 28.5994 7.85712C29.6071 7.85712 30.5668 7.42855 31.3346 6.71426C32.9181 5.19045 32.9181 2.76188 31.3346 1.23807ZM29.943 5.38093C29.5591 5.76188 29.0313 5.95236 28.5034 5.95236C27.9276 5.95236 27.4478 5.76188 27.0639 5.38093C26.2481 4.61902 26.2481 3.33331 27.0639 2.57141C27.4478 2.19045 27.9756 1.99998 28.5034 1.99998C29.0793 1.99998 29.5591 2.19045 29.943 2.57141C30.3269 2.95236 30.5188 3.47617 30.5188 3.95236C30.5668 4.52379 30.3749 4.99998 29.943 5.38093Z" fill="#878787"/>
<path d="M23.1769 9.09525C24.7605 10.6191 24.7605 13.0952 23.1769 14.5714C21.5934 16.0952 19.0502 16.0952 17.4667 14.5714C15.8832 13.0476 15.8832 10.5714 17.4667 9.09525C19.0502 7.57144 21.6414 7.57144 23.1769 9.09525Z" fill="#878787"/>
<path d="M17.4668 6.76194C16.603 5.95242 16.2671 4.9048 16.2192 3.85718L12.0444 7.85718C13.1481 7.9048 14.2038 8.23813 15.0675 9.04765C15.9312 9.85718 16.2671 10.9048 16.3151 11.9524L20.4419 7.95242C19.3862 7.9048 18.2825 7.57146 17.4668 6.76194Z" fill="#878787"/>
<path d="M66.2678 15.8095C64.2044 15.8095 62.9568 14.619 62.9568 12.6667V0.857131C62.9568 0.380941 63.3407 0.0476074 63.8205 0.0476074C64.3004 0.0476074 64.6843 0.42856 64.6843 0.857131V4.85713H67.6594C68.0912 4.85713 68.4751 5.23808 68.4751 5.66665C68.4751 6.09523 68.0912 6.42856 67.6594 6.42856H64.6843V12.5714C64.6843 13.7143 65.2601 14.2381 66.4597 14.2381C66.8916 14.2381 67.1795 14.1428 67.3714 14.0952C67.4674 14.0476 67.5634 14.0476 67.6594 14.0476C68.0912 14.0476 68.4751 14.4286 68.4751 14.8095C68.4751 15.1428 68.2832 15.3809 67.8993 15.5238C67.4674 15.6667 66.9396 15.8095 66.2678 15.8095Z" fill="#878787"/>
<path d="M75.2891 15.8095C73.8016 15.8095 72.1221 15.2381 70.9704 14.4286C70.8265 14.3333 70.6345 14.0476 70.6345 13.8095C70.6345 13.3809 71.0184 13 71.4983 13C71.6902 13 71.8821 13.0476 72.0261 13.1429C73.0818 13.9048 74.1854 14.2381 75.3851 14.2381C76.6807 14.2381 77.5924 13.5714 77.5924 12.619V12.5714C77.5924 11.6667 76.6807 11.2857 75.0012 10.8095H74.9532H74.9052C73.2257 10.3333 71.1144 9.7619 71.1144 7.71428V7.66666C71.1144 5.85714 72.7459 4.5238 74.9532 4.5238C76.1049 4.5238 77.4484 4.85714 78.5521 5.47618C78.84 5.66666 78.984 5.90476 78.984 6.19047C78.984 6.61904 78.6001 6.99999 78.1202 6.99999C77.9283 6.99999 77.7843 6.95238 77.6404 6.85714C76.7287 6.33333 75.769 6.04761 74.8572 6.04761C73.6096 6.04761 72.7939 6.61904 72.7939 7.5238V7.57142C72.7939 8.42857 73.8975 8.80952 75.529 9.23809C76.9206 9.61904 79.2719 10.2381 79.2719 12.4286V12.4762C79.2719 14.3809 77.5924 15.8095 75.2891 15.8095Z" fill="#878787"/>
<path d="M82.9668 15.7143C82.4869 15.7143 82.103 15.381 82.103 14.9048V0.857143C82.103 0.380952 82.4869 0 82.9668 0C83.4466 0 83.8305 0.380952 83.8305 0.857143V14.8571C83.8305 15.3333 83.4466 15.7143 82.9668 15.7143Z" fill="#878787"/>
<path d="M98.9938 15.8572C95.7788 15.8572 93.2356 13.381 93.2356 10.1905V10.1429C93.2356 6.9524 95.7788 4.42859 99.0418 4.42859C102.257 4.42859 104.8 6.90478 104.8 10.0953V10.1429C104.848 13.3334 102.257 15.8572 98.9938 15.8572ZM98.9938 6.04764C96.7385 6.04764 95.0111 7.80954 95.0111 10.1429V10.1905C95.0111 12.4762 96.7865 14.3334 99.0418 14.3334C101.297 14.3334 103.025 12.5714 103.025 10.2381V10.1905C103.025 7.85716 101.297 6.04764 98.9938 6.04764Z" fill="#878787"/>
<path d="M54.8954 15.8571C51.7284 15.8571 49.3291 13.4286 49.3291 10.1905V10.1429C49.3291 6.95239 51.6804 4.4762 54.7035 4.4762C57.7265 4.4762 59.8859 6.85715 59.8859 10.0952C59.8859 10.5238 59.502 10.9048 59.0221 10.9048H53.2639C52.784 10.9048 52.4481 10.5714 52.4481 10.1429C52.4481 9.71429 52.784 9.38096 53.2639 9.38096H58.1104C57.8705 7.76191 56.8628 6.04762 54.6555 6.04762C52.832 6.04762 51.3925 7.42858 51.1046 9.42858L51.0566 9.76191C51.0086 10.0952 51.0086 10.4286 51.0566 10.7143C51.2485 12.8095 52.832 14.2857 54.8474 14.2857C56.095 14.2857 57.1027 13.8571 58.0624 12.9524C58.2544 12.8095 58.4463 12.7143 58.6383 12.7143C59.1181 12.7143 59.502 13.0476 59.502 13.5238C59.502 13.6667 59.454 13.9048 59.2141 14.0952C58.0144 15.3333 56.7188 15.8571 54.8954 15.8571Z" fill="#878787"/>
<path d="M107.871 20C107.391 20 107.007 19.6667 107.007 19.1429V9.61907C107.007 6.47621 109.503 4.42859 112.478 4.42859C115.693 4.42859 118.236 6.90478 118.236 10.0953V10.1429C118.236 13.3334 115.693 15.8572 112.43 15.8572C110.942 15.8572 109.647 15.3334 108.687 14.381V19.1429C108.735 19.6667 108.399 20 107.871 20ZM108.735 10.6191C108.927 12.7143 110.366 14.1429 112.334 14.2381C112.382 14.2381 112.478 14.2381 112.526 14.2381C113.245 14.2381 113.869 14.0953 114.445 13.7619C114.493 13.7143 114.541 13.7143 114.637 13.6667C115.117 13.381 115.501 12.9524 115.789 12.4762C115.837 12.4286 115.837 12.381 115.885 12.3334C115.933 12.2381 116.029 12.0953 116.077 12C116.316 11.4286 116.46 10.8572 116.46 10.2381V10.1905C116.46 9.7143 116.364 9.19049 116.221 8.76192C116.173 8.61906 116.125 8.52383 116.077 8.38097C116.029 8.23811 115.981 8.14287 115.885 8.04764C115.501 7.42859 115.021 6.90478 114.397 6.57145C114.349 6.52383 114.301 6.52383 114.205 6.47621C114.109 6.42859 113.965 6.38097 113.821 6.33335C113.581 6.23811 113.293 6.19049 113.053 6.14287C112.91 6.14287 112.766 6.09526 112.67 6.09526C112.622 6.09526 112.526 6.09526 112.478 6.09526C110.414 6.09526 108.927 7.57145 108.735 9.7143V10.6191Z" fill="#878787"/>
<path d="M91.2681 15.7143C91.0282 15.7143 90.8363 15.619 90.6443 15.4762L85.3659 10.3333C85.03 10.0476 85.03 9.5714 85.318 9.23807V9.19045L90.1165 4.90473C90.2604 4.76188 90.4524 4.66664 90.6923 4.61902C90.9322 4.61902 91.1242 4.66664 91.3161 4.8095C91.7 5.09521 91.7 5.61902 91.4121 5.99997L91.3641 6.04759L87.0934 9.76188L91.796 14.3333C91.9879 14.4762 92.0359 14.7143 92.0359 14.9047C92.0359 15.1428 91.9399 15.3333 91.796 15.4762C91.7 15.619 91.5081 15.7143 91.2681 15.7143Z" fill="#878787"/>
<path d="M46.018 15.8571C45.5381 15.8571 45.1543 15.4762 45.1543 15V9.23809C45.1543 7.23809 44.0026 6.04761 42.0832 6.04761C40.1638 6.04761 39.0121 7.23809 39.0121 9.23809V15C39.0121 15.4762 38.6283 15.8571 38.1484 15.8571C37.6686 15.8571 37.2847 15.5238 37.2847 15V9.09523C37.2847 6.28571 39.1081 4.5238 41.9392 4.5238H42.2272C45.0583 4.5238 46.8817 6.33333 46.8817 9.09523V15C46.8817 15.4762 46.5458 15.8571 46.018 15.8571Z" fill="#878787"/>
<path d="M125.962 15.8571C122.795 15.8571 120.395 13.4286 120.395 10.1905V10.1429C120.395 6.95239 122.747 4.4762 125.77 4.4762C128.793 4.4762 130.952 6.85715 130.952 10.0952C130.952 10.5238 130.568 10.9048 130.088 10.9048H124.282C123.802 10.9048 123.466 10.5714 123.466 10.1429C123.466 9.71429 123.802 9.38096 124.282 9.38096H129.129C128.889 7.76191 127.881 6.04762 125.674 6.04762C123.85 6.04762 122.411 7.42858 122.123 9.42858L122.075 9.76191C122.027 10.0952 122.027 10.4286 122.075 10.7143C122.267 12.8095 123.85 14.2857 125.866 14.2857C127.113 14.2857 128.121 13.8571 129.081 12.9524C129.273 12.8095 129.465 12.7143 129.656 12.7143C130.136 12.7143 130.52 13.0476 130.52 13.5238C130.52 13.6667 130.472 13.9048 130.232 14.0952C129.081 15.3333 127.785 15.8571 125.962 15.8571Z" fill="#878787"/>
</g>
<defs>
<clipPath id="clip0_17_856">
<rect width="131" height="20" fill="white"/>
</clipPath>
</defs>
</svg>
