<svg width="131" height="36" viewBox="0 0 131 36" fill="none" xmlns="http://www.w3.org/2000/svg">
<g clip-path="url(#clip0_17_873)">
<path d="M121.009 19.113L123.035 13.8434L125.061 19.113H121.009ZM125.131 10.8521H120.939L115.071 25.1652H118.704L120.031 21.6695H126.022L127.367 25.1652H131L125.131 10.8521ZM95.5253 22.6608C93.1499 22.6608 91.246 20.5391 91.246 17.913C91.246 15.2869 93.1673 13.1652 95.5253 13.1652C97.8833 13.1652 99.8047 15.2869 99.8047 17.913C99.8221 20.5391 97.9008 22.6608 95.5253 22.6608ZM95.5253 10.3478C91.3333 10.3478 87.9273 13.7391 87.9273 17.913C87.9273 22.0869 91.3333 25.4782 95.5253 25.4782C99.7173 25.4782 103.123 22.1043 103.123 17.9304C103.123 13.7391 99.7173 10.3478 95.5253 10.3478ZM65.57 22.6608C63.212 22.6608 61.2906 20.5391 61.2906 17.913C61.2906 15.2869 63.212 13.1652 65.57 13.1652C67.9454 13.1652 69.8668 15.2869 69.8668 17.913C69.8668 20.5391 67.9454 22.6608 65.57 22.6608ZM65.57 10.3478C61.378 10.3478 57.9894 13.7391 57.9894 17.913C57.9894 22.0869 61.378 25.4782 65.57 25.4782C69.762 25.4782 73.168 22.1043 73.168 17.9304C73.168 13.7391 69.762 10.3478 65.57 10.3478ZM84.3466 10.8521L80.6262 16.6434L76.9058 10.8521H73.2728L79.0368 19.826V25.1652H82.2332V19.826L87.9972 10.8521C87.9797 10.8521 84.3466 10.8521 84.3466 10.8521ZM115.839 10.8521H103.56V13.6H108.119V25.1652H111.315V13.5826H115.839V10.8521ZM45.0292 13.5826H49.588V25.1478H52.7844V13.5826H57.3083V10.8521H45.0117V13.5826H45.0292Z" fill="#878787"/>
<path d="M36.0337 0H0V35.8783H36.0337V0Z" fill="#878787"/>
<path d="M24.0167 10.1392C22.3399 9.60003 20.2614 9.28699 18.0082 9.28699C15.755 9.28699 13.6765 9.60003 11.9997 10.1392C7.54568 11.5652 4.48901 14.5218 4.48901 17.9305C4.48901 22.7305 10.5325 26.6261 17.9907 26.6261C25.449 26.6261 31.4925 22.7305 31.4925 17.9305C31.5274 14.5218 28.4707 11.5652 24.0167 10.1392ZM18.0082 22.9044C16.8903 22.9044 15.9821 20.7305 15.9297 17.9826C16.5934 18.0348 17.2921 18.0696 18.0082 18.0696C18.7243 18.0696 19.4055 18.0348 20.0867 17.9826C20.0343 20.7131 19.1261 22.9044 18.0082 22.9044ZM16.0694 15.8261C16.3663 13.8957 17.1174 12.5392 18.0082 12.5392C18.8815 12.5392 19.6326 13.8957 19.947 15.8261C19.3357 15.8783 18.6719 15.9131 18.0082 15.9131C17.3445 15.9131 16.6982 15.8957 16.0694 15.8261ZM21.1347 15.687C20.6806 12.6609 19.4579 10.5044 18.0082 10.5044C16.5585 10.5044 15.3358 12.6609 14.8817 15.687C12.1394 15.2522 10.2181 14.2957 10.2181 13.1652C10.2181 11.6348 13.6939 10.4 17.9907 10.4C22.2875 10.4 25.7634 11.6348 25.7634 13.1652C25.7983 14.2957 23.877 15.2696 21.1347 15.687ZM6.48021 17.6174C6.48021 16.1392 7.05661 14.7652 8.03475 13.5826C8.01728 13.6696 8.01728 13.7566 8.01728 13.8261C8.01728 15.687 10.8119 17.2522 14.707 17.8261C14.707 17.9652 14.707 18.1044 14.707 18.2435C14.707 21.687 15.6677 24.6087 16.9951 25.6174C11.0914 25.2696 6.48021 21.8261 6.48021 17.6174ZM19.0387 25.6174C20.3662 24.6087 21.3269 21.687 21.3269 18.2435C21.3269 18.1044 21.3269 17.9652 21.3269 17.8261C25.2219 17.2522 28.0166 15.6696 28.0166 13.8261C28.0166 13.7392 28.0166 13.6522 27.9991 13.5826C28.9947 14.7652 29.5537 16.1566 29.5537 17.6174C29.5537 21.8261 24.925 25.2696 19.0387 25.6174Z" fill="white"/>
</g>
<defs>
<clipPath id="clip0_17_873">
<rect width="131" height="36" fill="white"/>
</clipPath>
</defs>
</svg>
